<?xml version="1.0" encoding="UTF-8"?>
<svg id="Layer_2" data-name="Layer 2" xmlns="http://www.w3.org/2000/svg" viewBox="0 0 161.09 21.54">
  <defs>
    <style>
      .cls-1 {
        fill: #fff;
      }

      .cls-2 {
        fill: #db5205;
      }

      .cls-3 {
        fill: none;
      }

      .cls-4, .cls-5 {
        fill: #ffd83d;
      }

      .cls-5 {
        stroke: #ffd83d;
        stroke-miterlimit: 10;
        stroke-width: .5px;
      }
    </style>
  </defs>
  <g id="Layer_2-2">
    <g>
      <circle class="cls-2" cx="15.79" cy="12.39" r=".7"/>
      <rect class="cls-3" x="28.79" y="3.09" width="132.3" height="17.5"/>
      <path class="cls-1" d="M41.33,15.27c.22,.28,.32,.56,.32,.88,0,.72-.46,1.18-1.2,1.18-.42,0-.76-.2-1.02-.54l-3.48-4.5h-3.5v3.76c0,.8-.44,1.28-1.18,1.28s-1.2-.48-1.2-1.28V5.09c0-.8,.48-1.28,1.28-1.28h5.66c2.94,0,4.52,1.42,4.52,4.1,0,2.18-1,3.56-2.84,4.04v.04l2.64,3.28Zm-4.56-5.16c1.52,0,2.32-.74,2.32-2.06s-.8-2.06-2.32-2.06h-4.32v4.12h4.32Z"/>
      <path class="cls-1" d="M48.21,17.45c-3.16,0-5.24-2.04-5.24-5.02s2.08-5.04,5.14-5.04c2.78,0,4.9,2,4.9,4.44v.1c0,.78-.52,1.28-1.3,1.28h-6.42c.26,1.4,1.38,2.28,2.92,2.28,1.04,0,1.84-.42,2.32-.98,.24-.28,.5-.4,.82-.4,.64,0,1.04,.4,1.04,1.02,0,.24-.08,.46-.24,.66-.88,1.06-2.26,1.66-3.94,1.66Zm-2.92-6h5.58c-.3-1.28-1.36-2.1-2.76-2.1s-2.52,.82-2.82,2.1Z"/>
      <path class="cls-1" d="M64.95,12.43c0,3.02-1.86,5.02-4.68,5.02-1.44,0-2.58-.5-3.32-1.4h-.04v.1c0,.74-.42,1.18-1.08,1.18-.7,0-1.12-.44-1.12-1.18V4.27c0-.72,.42-1.18,1.12-1.18,.66,0,1.08,.46,1.08,1.18v4.52h.04c.74-.9,1.88-1.4,3.32-1.4,2.82,0,4.68,2,4.68,5.04Zm-2.24,0c0-1.8-1.18-3.02-2.88-3.02s-2.92,1.24-2.92,3.02,1.2,3,2.92,3,2.88-1.22,2.88-3Z"/>
      <path class="cls-1" d="M71.71,17.45c-3.16,0-5.24-2.04-5.24-5.02s2.08-5.04,5.14-5.04c2.78,0,4.9,2,4.9,4.44v.1c0,.78-.52,1.28-1.3,1.28h-6.42c.26,1.4,1.38,2.28,2.92,2.28,1.04,0,1.84-.42,2.32-.98,.24-.28,.5-.4,.82-.4,.64,0,1.04,.4,1.04,1.02,0,.24-.08,.46-.24,.66-.88,1.06-2.26,1.66-3.94,1.66Zm-2.92-6h5.58c-.3-1.28-1.36-2.1-2.76-2.1s-2.52,.82-2.82,2.1Z"/>
      <path class="cls-1" d="M80.41,4.27v11.88c0,.74-.4,1.18-1.1,1.18s-1.1-.44-1.1-1.18V4.27c0-.74,.42-1.18,1.1-1.18s1.1,.44,1.1,1.18Z"/>
      <path class="cls-1" d="M97.79,3.81c.44,0,.72,.26,.72,.66,0,.42-.28,.68-.72,.68h-8.62v4.92h7.16c.44,0,.72,.26,.72,.68s-.28,.66-.72,.66h-7.16v5.12c0,.5-.28,.8-.74,.8s-.72-.3-.72-.8V4.61c0-.5,.28-.8,.78-.8h9.3Z"/>
      <path class="cls-1" d="M99.95,4.69c0-.52,.34-.88,.86-.88s.84,.36,.84,.88-.34,.86-.84,.86-.86-.36-.86-.86Zm1.54,3.62v8.28c0,.46-.26,.74-.68,.74s-.7-.28-.7-.74V8.31c0-.48,.26-.74,.7-.74s.68,.26,.68,.74Z"/>
      <path class="cls-1" d="M113.25,11.89v4.7c0,.46-.24,.74-.68,.74s-.7-.28-.7-.74v-4.58c0-2.18-1.06-3.32-3.06-3.32s-3.34,1.44-3.34,3.72v4.18c0,.46-.26,.74-.68,.74s-.7-.28-.7-.74V8.31c0-.46,.26-.74,.7-.74s.68,.28,.68,.74v.86h.04c.72-1.08,1.96-1.72,3.6-1.72,2.7,0,4.14,1.56,4.14,4.44Z"/>
      <path class="cls-1" d="M125.25,3.83v12.76c0,.46-.24,.74-.68,.74s-.7-.28-.7-.74v-.94h-.04c-.76,1.14-2.1,1.8-3.82,1.8-2.88,0-4.82-2-4.82-5s1.94-5,4.82-5c1.72,0,3.06,.66,3.82,1.8h.04V3.83c0-.48,.26-.74,.7-.74s.68,.26,.68,.74Zm-1.38,8.62c0-2.22-1.5-3.76-3.64-3.76s-3.64,1.52-3.64,3.76,1.48,3.76,3.64,3.76,3.64-1.52,3.64-3.76Z"/>
      <path class="cls-1" d="M136.47,12.93h-7.64c.22,1.96,1.64,3.28,3.74,3.28,1.28,0,2.32-.5,2.94-1.3,.12-.16,.32-.28,.56-.28,.38,0,.64,.26,.64,.64,0,.16-.04,.28-.14,.42-.86,1.1-2.3,1.76-4,1.76-3.1,0-5.16-2.02-5.16-5s2.06-5,5.04-5,4.9,1.98,4.9,4.64c0,.54-.32,.84-.88,.84Zm-7.6-1.2h7.18c-.28-1.82-1.66-3.04-3.6-3.04s-3.3,1.22-3.58,3.04Z"/>
      <path class="cls-1" d="M144.89,8.17c0,.44-.28,.68-.68,.68-2.26,0-3.52,1.38-3.52,4.18v3.56c0,.46-.26,.74-.68,.74s-.7-.28-.7-.74V8.31c0-.48,.26-.74,.7-.74s.68,.26,.68,.74v1.08h.04c.66-1.22,1.84-1.88,3.48-1.88,.4,0,.68,.22,.68,.66Z"/>
      <path class="cls-5" d="M10.79,21.29c-.6,0-1.3-.1-1.9-.2-1.4-.3-2.7-.8-3.9-1.6-1.2-.7-2.1-1.6-2.9-2.7s-1.3-2.4-1.6-3.7c-.3-1.4-.3-2.8-.1-4.2,.3-1.4,.8-2.7,1.6-3.9,.7-1.1,1.7-2.1,2.8-2.9,1.1-.8,2.4-1.3,3.7-1.6,1.4-.3,2.8-.3,4.2-.1,1.4,.3,2.7,.8,3.9,1.6,1,.8,2,1.7,2.8,2.8,.8,1.1,1.3,2.4,1.6,3.7,.3,1.4,.3,2.8,.1,4.2-.3,1.4-.8,2.7-1.6,3.9-.7,1.1-1.7,2.1-2.8,2.9-1.1,.8-2.4,1.3-3.7,1.6-.7,.1-1.5,.2-2.2,.2m-.1-20.9c-2.1,0-4.1,.6-5.9,1.8C2.59,3.79,.99,6.19,.49,8.89c-.5,2.7,.1,5.5,1.7,7.8s3.9,3.8,6.7,4.3c5.6,1,11.1-2.7,12.1-8.3h0C21.99,7.09,18.29,1.59,12.69,.59c-.7-.1-1.3-.2-2-.2"/>
      <path class="cls-4" d="M7.39,6.49c.1,0,.3,0,.4,.1h0c0-.3,0-.6,.1-.8-.6,.4-1.2,.9-1.6,1.3h.3c0-.3,.4-.6,.8-.6"/>
      <path class="cls-4" d="M9.09,10.99h0c-.2,.1-.3,.1-.4,.1-.5,0-.9-.3-1.1-.7-.2-.5,0-.8,.1-.9l-.2-.4-.2-.4h0c-.2,0-.4-.1-.7-.3l-.8,.1-.5,.1c-3.3,5.8,5.6,13.2,10.7,5.9-2.6-.1-5.3-1.2-6.9-3.5"/>
      <path class="cls-4" d="M16.09,11.59l-.1-.1v-.8c.7-.3,.2-1.2-.4-1q-.1,0-.2-.1c-.1-.1,0-.3-.1-.4-.1-.2-.3-.2-.4-.5,0-.1-.1-.4,.1-.4,.3-.1,.4-.5,.3-.8-.2-.4-.5-.2-.8-.2h-.1l-1.4-1.1c-.1,0-.1-.1-.1-.2,.1-.3-.2-.6-.5-.6s-.4,.3-.6,.4c-.4,0-.2-1-1.4-1.1-.8,0-1.4,.8-1.3,1.6q0,.1-.1,.2c-.5,.3-1,.7-1.4,.8-.1-.1-.2-.1-.3-.1-.2,0-.5,.1-.5,.4,0,.1-.1,.1-.2,.1-.8,0-1.8,.1-2,.1-.1,0-.1-.1-.1-.1-.4-.7-1.6-.3-1.3,.5,.1,.4,.5,.6,.9,.4,.5-.2,.3-.6,.5-.6,.1,0,2.2-.3,2.2-.2,.2,.5,.6,.2,.7,.4,.2,.4,.4,.8,.6,1.1,.1,.2-.1,.3-.2,.5-.1,.4,.3,.9,.8,.8,.4-.1,.6-.5,.5-.9,0-.2-.3-.3-.3-.5l.4-.8c0-.1,.1-.1,.2-.1,.1,.1,3.3,.8,3.1,1,0,.3,.3,.6,.7,.6,.1,0,.3-.1,.4,0,0,0,1.5,1.6,1.4,1.9-.3,.6,0,1.3,.7,1.3,.9,.1,1.2-1.2,.3-1.5m-3.4-5.2s.1-.1,.1,0l1.5,1.2c0,.1,0,.2-.1,.2-.4-.1-1.3,0-1.3-.3-.1-.4-.3-.9-.2-1.1m-1.3,.2c.1-.2,.2-.4,.2-.6,0-.1,.1-.1,.1-.1,.3,0,.1,.5,.7,.5,.1,0,.1,.1,.2,.1l.2,.8q0,.1-.1,.1c-.1,0-.3,0-.3-.2-.1-.2-.3-.3-.5-.3-.1,0-.2,.1-.3,0-.1,0-.3-.2-.2-.3m-2.3,1.9l-.3,.7c-.1,.1-.3,.2-.4,.1,0,0-.5-.8-.5-.9l-.2-.4c-.1-.1,.1-.3,.2-.2l1.2,.4s.1,.1,0,.3m.3-.6c0,.1-.2,.2-.3,.1l-1.2-.4c-.1,0-.1-.3,0-.4l1.2-.7h.2c.5,1,.6,.3,.1,1.4m3.6,.9c-.1,.1-.2,.3-.4,.2l-2.9-.9c-.1,0-.1-.1-.1-.2l.3-.7c.1-.2,.4,0,.6-.1,.4,0,.7-.4,.8-.3,.1,.1,.1,.2,.1,.3-.2,.3,.1,.8,.5,.8,.3,0,.4-.4,.6-.4,.1,0,.4,0,.4,.1-.1,.4,.3,1.1,.1,1.2m.4-.1c-.1,0-.1-.1-.2-.1-.3-1.2-.2-.8,1-.7,.2,0,.1,.4,.4,.5,.2,0,.1,.3,.1,.4s0,.1-.1,.1c-.3,.1-.2,.4-.5,.4-.3,0-.1-.6-.7-.6m.5,1.2c-.1-.1,0-.3,.1-.4,0-.1,.1-.1,.2-.1s.1,0,.1,.1c.1,.3,.4,.4,.7,.3,.1,0,.2-.1,.2-.1,.1,0,.3,.1,.2,.3-.2,.3,0,.7,.3,.7,.2,0,.1,.5,.1,.7,0,.1-.1,.1-.2,.1-.2,0-.4,.2-.5,0-.3-.5-1.2-1.6-1.2-1.6m2.5,2.9c-.4,.5-1.2,.3-1.2-.3-.1-1.4,1.9-.8,1.2,.3"/>
      <rect class="cls-3" x=".19" y=".29" width="21" height="21"/>
      <rect class="cls-3" x=".19" y=".29" width="21" height="21"/>
    </g>
  </g>
</svg>