<?xml version="1.0" encoding="UTF-8"?>
<svg id="Layer_2" data-name="Layer 2" xmlns="http://www.w3.org/2000/svg" viewBox="0 0 161.18 21.71">
  <defs>
    <style>
      .cls-1 {
        font-family: Como-Medium, Como;
        font-weight: 500;
      }

      .cls-2 {
        fill: #db5205;
      }

      .cls-3 {
        fill: none;
      }

      .cls-4 {
        fill: #fff;
        font-size: 20px;
      }

      .cls-5, .cls-6 {
        fill: #ffd83d;
      }

      .cls-6 {
        stroke: #ffd83d;
        stroke-miterlimit: 10;
        stroke-width: .5px;
      }

      .cls-7 {
        letter-spacing: 0em;
      }

      .cls-7, .cls-8 {
        font-family: Como-Bold, Como;
        font-weight: 700;
      }
    </style>
  </defs>
  <g id="Layer_2-2">
    <g>
      <circle class="cls-2" cx="15.84" cy="12.32" r=".73"/>
      <text class="cls-4" transform="translate(28.85 17.17)"><tspan class="cls-7" x="0" y="0">R</tspan><tspan class="cls-8" x="13.38" y="0">ebel</tspan><tspan class="cls-1" x="52.72" y="0" xml:space="preserve"> Finder</tspan></text>
      <path class="cls-6" d="M10.76,21.25c-.64,0-1.28-.06-1.92-.18-1.39-.26-2.7-.78-3.87-1.55-1.13-.75-2.1-1.69-2.87-2.82-.77-1.12-1.31-2.36-1.61-3.69-.3-1.37-.33-2.77-.07-4.17,.26-1.39,.78-2.7,1.55-3.87,.75-1.13,1.69-2.1,2.82-2.87,1.12-.77,2.36-1.31,3.69-1.61,1.37-.3,2.77-.33,4.17-.07,1.39,.26,2.7,.78,3.87,1.55,1.13,.75,2.1,1.69,2.87,2.82,.77,1.12,1.31,2.36,1.61,3.69,.3,1.37,.33,2.77,.07,4.17-.26,1.39-.78,2.7-1.55,3.87-.75,1.13-1.69,2.1-2.82,2.87-1.12,.77-2.36,1.31-3.69,1.61-.74,.16-1.49,.25-2.25,.25m-.04-20.91c-2.09,0-4.12,.63-5.88,1.84C2.56,3.76,1.02,6.13,.52,8.86c-.5,2.73,.09,5.5,1.66,7.79,1.58,2.29,3.95,3.83,6.68,4.33,5.64,1.04,11.08-2.7,12.12-8.34h.05s-.05,0-.05,0C22.02,7,18.28,1.56,12.64,.52c-.64-.12-1.28-.18-1.91-.18"/>
      <path class="cls-5" d="M7.38,6.5c.13,0,.26,.03,.38,.08,0,0,0,0,0,0,0-.28,.02-.57,.05-.85-.65,.42-1.18,.87-1.62,1.34l.29-.03c.16-.32,.51-.53,.89-.53"/>
      <path class="cls-5" d="M9.11,10.91s-.04,.02-.06,.02c-.11,.03-.21,.05-.33,.05-.47,0-.9-.3-1.06-.74-.17-.45,0-.77,.1-.95l-.24-.42-.23-.4v-.03c-.18-.01-.46-.06-.68-.33l-.8,.09-.53,.06c-3.29,5.81,5.63,13.25,10.72,5.87-2.63,.23-5.3-.93-6.9-3.24"/>
      <path class="cls-5" d="M16.14,11.55s-.09-.07-.09-.12c.01-.3,.03-.78,.03-.78,.69-.27,.24-1.24-.42-.98-.06,0-.12-.03-.23-.14-.14-.11-.03-.29-.1-.43-.05-.24-.34-.25-.37-.45,.01-.09-.06-.36,.07-.39,.3-.11,.44-.46,.28-.75-.25-.39-.51-.24-.81-.18-.04,0-.07,0-.1-.03,0,0-1.45-1.13-1.45-1.13-.05-.04-.08-.11-.06-.18,.07-.31-.2-.63-.51-.63-.33-.04-.4,.34-.63,.35-.37-.01-.21-1.02-1.43-1.07-.81,0-1.43,.77-1.25,1.56,.01,.06-.01,.13-.07,.17-.54,.34-1.05,.71-1.37,.77-.11-.05-.21-.13-.33-.12-.23,0-.46,.15-.52,.38-.02,.07-.08,.12-.16,.13-.82,.15-1.8,.22-2.05,.26-.08,.01-.13-.08-.13-.08-.29-.77-1.5-.36-1.25,.44,.11,.36,.51,.55,.85,.43,.47-.16,.33-.57,.55-.62,.06,.03,2.19-.34,2.22-.2,.22,.48,.58,.18,.71,.39,.2,.35,.45,.79,.65,1.13,.07,.19-.15,.32-.18,.5-.12,.44,.34,.89,.78,.78,.39-.08,.63-.5,.49-.87-.03-.21-.34-.28-.27-.5,0,0,.36-.78,.36-.78,.04-.09,.14-.13,.23-.1,.07,.08,3.26,.82,3.11,1.05,.02,.34,.33,.6,.67,.6,.15,.01,.31-.12,.42,.03,0,0,1.46,1.62,1.36,1.85-.34,.56,.01,1.33,.69,1.32,.9,.03,1.16-1.34,.31-1.6m-3.44-5.22s.08-.08,.13-.03l1.53,1.2c.05,.05,.02,.18-.11,.16-.41-.09-1.26-.05-1.33-.34-.1-.3-.31-.79-.23-.99m-1.28,.25c.11-.18,.17-.38,.18-.59,0-.06,.05-.1,.11-.09,.28,.04,.12,.49,.66,.52,.08,0,.14,.06,.16,.13l.2,.76c.02,.07-.04,.14-.11,.14-.12,0-.28-.02-.3-.17-.08-.21-.28-.35-.49-.35-.09-.02-.21,.08-.28,0-.07-.09-.22-.23-.13-.36m-2.27,1.83l-.33,.73c-.06,.12-.28,.16-.41,.14-.04,0-.47-.81-.51-.86l-.22-.39c-.06-.09,.05-.26,.16-.23,0,0,1.2,.35,1.2,.35,.11,.03,.17,.16,.12,.26m.25-.54c-.05,.1-.16,.15-.26,.12l-1.22-.36c-.14-.05-.15-.28-.03-.36,0,0,1.17-.73,1.17-.73,.05-.03,.12-.02,.16,.04,.63,.83,.65,.17,.18,1.29m3.57,.89c-.14,.09-.23,.31-.41,.24,0,0-2.9-.86-2.9-.86-.08-.02-.13-.12-.09-.2l.31-.69c.1-.18,.41,0,.59-.06,.42,0,.72-.44,.82-.28,.07,.08,.13,.19,.07,.29-.2,.33,.08,.78,.45,.78,.34,.04,.41-.35,.64-.37,.1,.02,.37-.01,.39,.13,0,.16,.35,.9,.13,1.01m.43-.11c-.08,0-.15-.06-.17-.14-.34-1.18-.22-.76,.98-.71,.19,.04,.15,.37,.44,.46,.15,.05,.09,.3,.1,.42,0,.06-.04,.1-.09,.12-.33,.1-.23,.41-.5,.41-.31,.02-.16-.5-.76-.56m.51,1.22c-.11-.13,.02-.25,.06-.38,.03-.1,.13-.11,.23-.11,.06,0,.13,0,.15,.08,.1,.28,.41,.41,.67,.32,.11-.05,.17-.11,.24-.11,.08,0,.26,.14,.19,.25-.16,.28,.02,.68,.34,.75,.18,.03,.12,.52,.1,.74-.02,.07-.08,.1-.16,.1-.17,0-.36,.18-.49,.01-.43-.54-1.32-1.65-1.32-1.65m2.48,2.88c-.35,.48-1.18,.26-1.24-.34-.03-1.32,1.94-.77,1.24,.34"/>
      <rect class="cls-3" x=".25" y=".25" width="21" height="21"/>
      <rect class="cls-3" x=".25" y=".25" width="21" height="21"/>
    </g>
  </g>
</svg>