<?xml version="1.0" encoding="UTF-8"?>
<svg xmlns="http://www.w3.org/2000/svg" xmlns:xlink="http://www.w3.org/1999/xlink" width="200px" height="182px" viewBox="0 0 199 182" version="1.1">
<defs>
<clipPath id="clip1">
  <path d="M 10.246094 1.386719 L 188.953125 1.386719 L 188.953125 180.8125 L 10.246094 180.8125 Z M 10.246094 1.386719 "/>
</clipPath>
</defs>
<g id="surface1">
<g clip-path="url(#clip1)" clip-rule="nonzero">
<path style=" stroke:none;fill-rule:nonzero;fill:rgb(8.627451%,15.686275%,32.156863%);fill-opacity:1;" d="M 188.753906 91 C 188.753906 140.457031 148.757812 180.613281 99.5 180.613281 C 50.242188 180.613281 10.246094 140.457031 10.246094 91 C 10.246094 41.542969 50.242188 1.386719 99.5 1.386719 C 148.757812 1.386719 188.753906 41.542969 188.753906 91 "/>
</g>
<path style=" stroke:none;fill-rule:nonzero;fill:rgb(100%,84.705882%,23.921569%);fill-opacity:1;" d="M 71.128906 54.996094 C 72.308594 54.996094 73.296875 55.195312 74.28125 55.589844 C 74.28125 53.214844 74.476562 50.839844 74.675781 48.46875 C 69.15625 52.027344 64.625 55.785156 60.882812 59.941406 L 63.246094 59.742188 C 64.824219 56.777344 67.777344 54.996094 71.128906 54.996094 "/>
<path style=" stroke:none;fill-rule:nonzero;fill:rgb(100%,84.705882%,23.921569%);fill-opacity:1;" d="M 85.707031 92.386719 C 85.511719 92.386719 85.3125 92.582031 85.117188 92.582031 C 84.132812 92.78125 83.34375 92.976562 82.359375 92.976562 C 78.417969 92.976562 74.675781 90.40625 73.492188 86.648438 C 72.113281 82.890625 73.492188 80.121094 74.28125 78.535156 L 72.308594 74.976562 L 70.339844 71.613281 L 70.140625 71.414062 C 68.761719 71.414062 66.398438 71.019531 64.625 68.644531 L 57.925781 69.4375 L 53.394531 70.03125 C 25.613281 119.488281 101.078125 182.792969 144.226562 119.882812 C 121.765625 122.058594 99.304688 112.167969 85.707031 92.386719 "/>
<path style=" stroke:none;fill-rule:nonzero;fill:rgb(100%,84.705882%,23.921569%);fill-opacity:1;" d="M 145.210938 97.925781 C 144.816406 97.726562 144.421875 97.332031 144.421875 96.933594 C 144.421875 94.957031 144.621094 91.792969 144.621094 90.800781 C 144.621094 90.605469 144.816406 90.40625 145.015625 90.207031 C 150.332031 87.636719 146.589844 79.921875 141.074219 82.097656 C 140.679688 82.097656 140.089844 81.898438 139.101562 80.910156 C 137.921875 79.921875 138.90625 78.535156 138.316406 77.152344 C 137.921875 74.976562 135.359375 74.976562 135.164062 73.394531 C 135.359375 72.601562 134.769531 70.425781 135.753906 70.03125 C 138.316406 69.042969 139.496094 66.074219 138.117188 63.699219 C 135.949219 60.335938 133.78125 61.722656 131.222656 62.117188 C 130.828125 62.117188 130.628906 62.117188 130.433594 61.917969 C 130.433594 61.917969 118.21875 52.226562 118.21875 52.226562 C 117.824219 51.832031 117.625 51.238281 117.625 50.644531 C 118.21875 48.070312 115.851562 45.300781 113.292969 45.300781 C 110.535156 44.90625 109.941406 48.070312 107.972656 48.269531 C 104.820312 48.070312 106.199219 39.566406 95.953125 39.167969 C 89.058594 39.167969 83.738281 45.699219 85.3125 52.425781 C 85.511719 53.015625 85.3125 53.609375 84.722656 53.808594 C 80.191406 56.777344 75.855469 59.742188 73.097656 60.335938 C 72.113281 59.941406 71.324219 59.148438 70.339844 59.347656 C 68.371094 59.347656 66.398438 60.535156 66.003906 62.511719 C 65.808594 63.105469 65.21875 63.503906 64.625 63.503906 C 57.730469 64.6875 49.453125 65.28125 47.289062 65.679688 C 46.5 65.875 46.105469 64.886719 46.105469 64.886719 C 43.542969 58.359375 33.496094 61.917969 35.464844 68.644531 C 36.449219 71.8125 39.800781 73.394531 42.753906 72.207031 C 46.695312 70.820312 45.515625 67.457031 47.484375 66.863281 C 48.074219 67.0625 66.003906 63.898438 66.203125 65.28125 C 67.976562 69.4375 71.128906 66.863281 72.308594 68.644531 C 74.082031 71.613281 76.054688 75.371094 77.828125 78.339844 C 78.417969 79.921875 76.644531 81.109375 76.25 82.691406 C 75.265625 86.449219 79.207031 90.207031 82.753906 89.417969 C 86.101562 88.824219 88.074219 85.261719 86.890625 82.097656 C 86.691406 80.316406 83.933594 79.722656 84.527344 77.945312 C 84.527344 77.945312 87.480469 71.21875 87.480469 71.21875 C 87.875 70.425781 88.664062 70.03125 89.453125 70.425781 C 90.042969 71.21875 117.035156 77.351562 115.851562 79.328125 C 116.050781 82.296875 118.613281 84.472656 121.566406 84.472656 C 122.75 84.667969 124.128906 83.484375 125.113281 84.667969 C 125.113281 84.667969 137.527344 98.515625 136.738281 100.496094 C 133.78125 105.242188 136.9375 111.773438 142.648438 111.773438 C 150.136719 111.773438 152.5 100.101562 145.210938 97.925781 M 116.050781 53.414062 C 116.445312 53.015625 116.640625 52.820312 117.234375 53.214844 L 130.238281 63.503906 C 130.628906 63.898438 130.433594 65.085938 129.25 64.886719 C 125.703125 64.09375 118.613281 64.492188 118.019531 61.917969 C 117.234375 59.347656 115.460938 55.195312 116.050781 53.414062 M 105.214844 55.589844 C 106.199219 54.007812 106.59375 52.425781 106.789062 50.445312 C 106.789062 50.050781 107.183594 49.65625 107.773438 49.65625 C 110.140625 50.050781 108.761719 53.808594 113.292969 54.007812 C 113.882812 54.007812 114.472656 54.402344 114.671875 55.195312 L 116.246094 61.722656 C 116.445312 62.316406 115.851562 62.910156 115.261719 62.910156 C 114.277344 62.910156 112.898438 62.710938 112.699219 61.523438 C 112.109375 59.742188 110.335938 58.554688 108.5625 58.554688 C 107.773438 58.359375 106.789062 59.347656 106.199219 58.554688 C 105.804688 57.765625 104.425781 56.578125 105.214844 55.589844 M 86.101562 71.21875 L 83.34375 77.351562 C 82.753906 78.339844 80.980469 78.734375 79.796875 78.535156 C 79.402344 78.535156 75.855469 71.613281 75.460938 71.21875 L 73.492188 67.855469 C 72.902344 67.0625 73.886719 65.679688 74.871094 65.875 C 74.871094 65.875 84.917969 68.84375 84.917969 68.84375 C 85.90625 69.238281 86.496094 70.226562 86.101562 71.21875 M 88.074219 66.46875 C 87.679688 67.261719 86.691406 67.65625 85.90625 67.457031 L 75.460938 64.292969 C 74.28125 63.898438 74.28125 61.917969 75.265625 61.324219 L 85.117188 54.996094 C 85.511719 54.796875 86.101562 54.796875 86.496094 55.390625 C 92.011719 62.511719 92.210938 56.972656 88.074219 66.46875 M 118.414062 73.988281 C 117.234375 74.777344 116.445312 76.558594 114.867188 75.964844 C 114.867188 75.964844 90.238281 68.644531 90.238281 68.644531 C 89.453125 68.449219 89.253906 67.65625 89.453125 66.863281 L 92.210938 60.929688 C 92.996094 59.347656 95.558594 60.335938 97.332031 60.140625 C 100.878906 59.546875 103.441406 56.777344 104.230469 58.160156 C 104.820312 58.753906 105.410156 59.742188 104.820312 60.535156 C 103.046875 63.304688 105.410156 67.261719 108.5625 67.261719 C 111.519531 67.65625 112.109375 64.292969 113.882812 64.09375 C 114.671875 64.292969 117.035156 63.898438 117.234375 65.28125 C 117.429688 66.863281 120.1875 73.195312 118.414062 73.988281 M 121.960938 73.195312 C 121.371094 73.195312 120.777344 72.601562 120.582031 72.007812 C 117.625 61.917969 118.613281 65.480469 128.859375 65.875 C 130.433594 66.273438 130.039062 69.042969 132.601562 69.832031 C 133.980469 70.226562 133.390625 72.40625 133.390625 73.394531 C 133.390625 73.789062 132.996094 74.183594 132.601562 74.382812 C 129.84375 75.175781 130.628906 77.945312 128.265625 77.945312 C 125.902344 77.945312 127.085938 73.589844 121.960938 73.195312 M 126.492188 83.484375 C 125.507812 82.492188 126.691406 81.304688 126.886719 80.316406 C 127.085938 79.527344 128.070312 79.328125 128.859375 79.328125 C 129.449219 79.328125 129.84375 79.328125 130.039062 79.921875 C 130.828125 82.296875 133.390625 83.484375 135.753906 82.691406 C 136.738281 82.296875 137.132812 81.703125 137.722656 81.703125 C 138.316406 81.703125 139.890625 82.890625 139.300781 83.878906 C 137.921875 86.253906 139.496094 89.613281 142.058594 90.207031 C 143.632812 90.40625 143.042969 94.5625 142.847656 96.539062 C 142.648438 97.132812 142.253906 97.332031 141.46875 97.332031 C 140.089844 97.332031 138.511719 98.914062 137.328125 97.332031 C 133.980469 92.976562 126.492188 83.484375 126.492188 83.484375 M 147.378906 108.011719 C 144.421875 112.167969 137.328125 110.1875 136.9375 105.046875 C 136.738281 93.96875 153.289062 98.515625 147.378906 108.011719 "/>
<path style=" stroke:none;fill-rule:nonzero;fill:rgb(85.882353%,32.156863%,1.960784%);fill-opacity:1;" d="M 148.757812 104.453125 C 148.757812 107.816406 146 110.585938 142.648438 110.585938 C 139.300781 110.585938 136.542969 107.816406 136.542969 104.453125 C 136.542969 101.089844 139.300781 98.320312 142.648438 98.320312 C 146 98.320312 148.757812 101.089844 148.757812 104.453125 "/>
</g>
</svg>
